<svg width="203" height="58" viewBox="0 0 203 58" xmlns="http://www.w3.org/2000/svg"><title>Authentiq Logo</title><g fill="none" fill-rule="evenodd"><path d="M62.405 39.158c0 1.39-.776 2.965-1.727 3.505L32.74 57.01c-.948.538-2.504.538-3.452-.002L1.725 42.665C.777 42.125 0 40.548 0 39.158V18.255c0-1.39.777-2.968 1.725-3.508L29.288.405c.948-.54 2.504-.54 3.452-.003L60.678 14.75c.95.54 1.727 2.115 1.727 3.505v20.903z" fill="#FFF"/><path d="M23.097 29.02c0-3.79 2.826-6.864 6.31-6.864 3.485 0 6.308 3.073 6.308 6.863 0 3.788-2.823 6.858-6.308 6.858-3.484 0-6.31-3.07-6.31-6.86zM46.93 35.14c-.348.092-.693.19-1.06.19-.744 0-1.443-.205-1.947-.62-.492-.414-.74-.99-.74-1.737v-16.5h-7.238v2.883c-1-1.183-2.162-2.02-3.465-2.565-1.308-.543-2.955-.817-4.48-.817-1.835 0-3.485.352-4.967 1.05-1.48.693-2.742 1.63-3.798 2.807-1.037 1.18-1.847 2.55-2.416 4.118-.562 1.574-.845 3.23-.845 4.977 0 1.786.283 3.467.844 5.034.568 1.568 1.378 2.942 2.415 4.12 1.056 1.173 2.317 2.114 3.798 2.813 1.482.697 3.132 1.043 4.967 1.043 1.788 0 3.4-.354 4.842-1.075 1.434-.724 2.63-1.844 3.59-3.37.61 1.306 1.473 2.375 2.578 3.206 1.116.83 2.392 1.24 3.832 1.24.996 0 2.095-.12 3.095-.354.37-.092.65-.34.992-.475v-5.965z" fill="#F26641"/><path fill="#222" d="M79 35h62v16H79z"/><path d="M92.45 22.732l1.656 3.905h3.114L89.656 9.335h-2.99l-7.638 17.302h3.04l1.656-3.905h8.725zm-1.113-2.596h-6.525l3.263-7.687 3.262 7.686zm19.947-6.65h-2.842v6.477c0 2.3-1.335 4.054-3.61 4.103-1.902 0-3.064-1.21-3.064-3.188v-7.39h-2.843v8.18c0 3.14 1.805 5.068 4.82 5.068 2.15-.025 3.807-.84 4.697-2.67v2.57h2.842v-13.15zm10.925 10.135c-.767.372-1.385.57-1.978.57-.89 0-1.41-.42-1.41-1.78v-6.303h3.88v-2.125h-3.88v-3.61h-2.817v3.61h-1.854v2.125h1.855v6.822c0 2.693 1.706 3.83 3.683 3.83 1.112 0 2.2-.346 3.238-.964l-.717-2.175zm11.17-10.232c-2.248 0-3.93.816-4.868 2.67v-7.76h-2.842v18.34h2.842V20.16c0-2.323 1.41-4.077 3.757-4.102 1.976 0 3.163 1.21 3.163 3.188v7.39h2.842v-8.18c0-3.14-1.83-5.068-4.894-5.068zm14.115 0c-3.905.025-6.65 2.72-6.65 6.7 0 3.954 2.67 6.648 6.724 6.648 2.273 0 4.152-.816 5.437-2.225l-1.508-1.605c-.965.988-2.275 1.532-3.708 1.532-2.077 0-3.634-1.26-4.08-3.287h9.938c.346-4.746-1.533-7.762-6.155-7.762zm-3.83 5.685c.32-2.1 1.778-3.41 3.855-3.41 2.15 0 3.56 1.285 3.658 3.41h-7.514zm20.638-5.685c-2.225 0-3.906.79-4.845 2.62v-2.52h-2.842v13.15h2.842V19.64c.198-2.052 1.557-3.56 3.732-3.584 1.978 0 3.164 1.21 3.164 3.188v7.39h2.843v-8.18c0-3.14-1.83-5.068-4.894-5.068zm15.423 10.233c-.766.372-1.384.57-1.977.57-.89 0-1.41-.42-1.41-1.78v-6.303h3.88v-2.125h-3.88v-3.61h-2.818v3.61h-1.854v2.125h1.854v6.822c0 2.693 1.706 3.83 3.683 3.83 1.112 0 2.2-.346 3.238-.964l-.717-2.175zM184.472 8c-.94 0-1.656.717-1.656 1.73 0 .99.717 1.706 1.656 1.706.94 0 1.656-.717 1.656-1.706 0-1.013-.717-1.73-1.656-1.73zm1.41 18.637v-13.15h-2.82v13.15h2.82zm16.732-13.15h-2.842v2.274c-.964-1.53-2.546-2.396-4.672-2.396-3.707 0-6.253 2.694-6.253 6.65 0 4.003 2.52 6.746 6.303 6.746 2.1 0 3.683-.84 4.622-2.372v7.044h2.842V13.487zm-6.87 10.9c-2.398 0-4.03-1.78-4.055-4.276.024-2.52 1.68-4.324 4.053-4.324s4.03 1.78 4.03 4.325c0 2.498-1.657 4.278-4.03 4.278z" fill="#FFF"/><text font-family="Montserrat-Bold, Montserrat" font-size="9" font-weight="bold" letter-spacing=".78" fill="#FFF"><tspan x="84" y="46">CONNECT</tspan></text></g></svg>
